Coordinates
version=1
nRows=9
nColumns=63
inDegrees=yes

Units are S.I. units (second, meters, Newtons, ...)
If the header above contains a line with 'inDegrees', this indicates whether rotational values are in degrees (yes) or radians (no).

endheader
time	pelvis_tilt	pelvis_list	pelvis_rotation	pelvis_tx	pelvis_ty	pelvis_tz	hip_flexion_r	hip_adduction_r	hip_rotation_r	knee_angle_r	knee_angle_r_beta	ankle_angle_r	subtalar_angle_r	mtp_angle_r	hip_flexion_l	hip_adduction_l	hip_rotation_l	knee_angle_l	knee_angle_l_beta	ankle_angle_l	subtalar_angle_l	mtp_angle_l	L5_S1_Flex_Ext	L5_S1_Lat_Bending	L5_S1_axial_rotation	L4_L5_Flex_Ext	L4_L5_Lat_Bending	L4_L5_axial_rotation	L3_L4_Flex_Ext	L3_L4_Lat_Bending	L3_L4_axial_rotation	L2_L3_Flex_Ext	L2_L3_Lat_Bending	L2_L3_axial_rotation	L1_L2_Flex_Ext	L1_L2_Lat_Bending	L1_L2_axial_rotation	L1_T12_Flex_Ext	L1_T12_Lat_Bending	L1_T12_axial_rotation	Abs_r3	Abs_r2	Abs_r1	Abs_t1	Abs_t2	neck_flexion	neck_bending	neck_rotation	arm_flex_r	arm_add_r	arm_rot_r	elbow_flex_r	pro_sup_r	wrist_flex_r	wrist_dev_r	arm_flex_l	arm_add_l	arm_rot_l	elbow_flex_l	pro_sup_l	wrist_flex_l	wrist_dev_l
2.733333	-1.455187	2.058635	88.765773	0.222527	0.657897	0.660518	-3.167698	-1.570877	-13.068552	8.355434	0.145830	18.447134	15.130529	0.000000	-1.949542	1.543271	-7.642822	7.468637	0.130352	18.164590	-1.507806	0.000000	0.133287	0.042667	-0.440789	0.247527	0.056747	-0.468338	0.218977	0.103741	-0.468338	0.152333	0.103741	-0.385690	0.123770	0.087007	-0.358141	0.076160	0.066092	-0.330592	0.952053	0.482661	-2.451535	0.000000	0.000000	24.841412	-6.728056	-13.755955	-6.017542	-14.172541	-4.276173	37.761907	82.483037	-20.579267	0.882201	-5.238346	-16.223238	26.598731	30.780632	85.585192	-14.524475	2.199456
2.750000	-1.490629	2.039460	88.581099	0.222491	0.657981	0.659848	-3.054362	-1.652335	-12.866935	8.604782	0.150182	18.560276	14.967100	0.000000	-1.875631	1.566255	-8.006828	7.706344	0.134501	18.307024	-1.265505	0.000000	0.144077	0.025744	-0.370512	0.267566	0.034240	-0.393669	0.236704	0.062594	-0.393669	0.164666	0.062594	-0.324198	0.133790	0.052498	-0.301041	0.082326	0.039878	-0.277884	1.029128	0.291223	-2.060675	0.000000	0.000000	24.781828	-6.588210	-14.415984	-6.211794	-14.144778	-4.479567	37.728241	82.172531	-20.462238	0.483982	-5.134871	-16.121824	25.626164	30.815237	85.473249	-14.614088	2.613600
2.766667	-1.549135	2.022148	88.343312	0.222571	0.658030	0.659301	-2.903789	-1.751880	-12.558841	8.893561	0.155222	18.668801	14.694234	0.000000	-1.803002	1.609693	-8.459287	7.932213	0.138443	18.456703	-0.973608	0.000000	0.153895	0.006636	-0.294896	0.285798	0.008826	-0.313327	0.252834	0.016134	-0.313327	0.175886	0.016134	-0.258034	0.142907	0.013532	-0.239603	0.087935	0.010279	-0.221172	1.099254	0.075065	-1.640125	0.000000	0.000000	24.686325	-6.412457	-14.859752	-6.357066	-14.109220	-4.657122	37.667868	81.989712	-20.360174	0.175270	-5.033803	-16.050799	24.628097	30.910077	85.459458	-14.816817	3.107391
2.783333	-1.621996	2.025228	88.069620	0.222713	0.658076	0.658944	-2.736130	-1.870079	-12.215788	9.217144	0.160870	18.766000	14.394169	0.000000	-1.747696	1.663422	-9.007977	8.147026	0.142192	18.625495	-0.586462	0.000000	0.159151	-0.013245	-0.210642	0.295559	-0.017616	-0.223807	0.261469	-0.032205	-0.223807	0.181894	-0.032205	-0.184312	0.147788	-0.027010	-0.171147	0.090939	-0.020517	-0.157981	1.136799	-0.149835	-1.171527	0.000000	0.000000	24.531685	-6.226203	-15.117276	-6.478495	-14.103580	-4.731445	37.615941	81.700269	-20.316708	-0.107686	-4.857783	-16.032312	23.883100	31.002908	85.447770	-15.193892	3.566496
2.800000	-1.713658	2.031859	87.768966	0.222908	0.658091	0.658791	-2.530375	-1.999443	-11.768771	9.578494	0.167176	18.838963	13.945222	0.000000	-1.695401	1.738203	-9.583914	8.335685	0.145485	18.781418	-0.203204	0.000000	0.161854	-0.034383	-0.125582	0.300580	-0.045730	-0.133431	0.265911	-0.083600	-0.133431	0.184983	-0.083600	-0.109884	0.150298	-0.070115	-0.102035	0.092484	-0.053260	-0.094186	1.156109	-0.388953	-0.698448	0.000000	0.000000	24.330771	-6.015914	-15.164001	-6.572794	-14.083349	-4.819173	37.591749	81.535928	-20.344814	-0.326292	-4.679862	-16.048301	23.207223	31.155941	85.464187	-15.788944	4.031657
2.816667	-1.824567	2.046749	87.473760	0.223103	0.658081	0.658846	-2.294786	-2.144022	-11.277646	9.981817	0.174216	18.900755	13.394203	0.000000	-1.648121	1.828584	-10.233301	8.503883	0.148421	18.956390	0.302633	0.000000	0.160945	-0.056524	-0.050453	0.298891	-0.075177	-0.053606	0.264416	-0.137432	-0.053606	0.183944	-0.137432	-0.044146	0.149453	-0.115264	-0.040993	0.091964	-0.087556	-0.037839	1.149613	-0.639411	-0.280602	0.000000	0.000000	24.084055	-5.739152	-14.919357	-6.622746	-14.068239	-4.850133	37.582487	81.483775	-20.395526	-0.503966	-4.557159	-16.072369	22.351004	31.412513	85.591791	-16.424876	4.517835
2.833333	-1.949802	2.062076	87.196676	0.223239	0.658041	0.659076	-2.022932	-2.297362	-10.729797	10.432183	0.182076	18.953482	12.695406	0.000000	-1.604109	1.942603	-10.799909	8.635100	0.150711	19.104436	0.733118	0.000000	0.157384	-0.078525	0.015819	0.292279	-0.104438	0.016807	0.258567	-0.190925	0.016807	0.179875	-0.190925	0.013841	0.146147	-0.160128	0.012853	0.089929	-0.121635	0.011864	1.124181	-0.888287	0.087978	0.000000	0.000000	23.807769	-5.432848	-14.429133	-6.648457	-14.059632	-4.850069	37.587027	81.501924	-20.481680	-0.692118	-4.464371	-16.101665	21.434990	31.760758	85.765718	-17.150807	4.982559
2.850000	-2.081592	2.075797	86.969616	0.223257	0.657982	0.659445	-1.721112	-2.447817	-10.123998	10.926750	0.190708	18.993215	11.824196	0.000000	-1.565012	2.071731	-11.284949	8.721572	0.152220	19.218681	1.121244	0.000000	0.151508	-0.099042	0.070180	0.281365	-0.131726	0.074567	0.248912	-0.240812	0.074567	0.173158	-0.240812	0.061408	0.140690	-0.201967	0.057022	0.086571	-0.153417	0.052635	1.082204	-1.120387	0.390322	0.000000	0.000000	23.527174	-5.102293	-13.704186	-6.658122	-14.081733	-4.786521	37.599489	81.572042	-20.582647	-0.886316	-4.377272	-16.134913	20.526518	32.189199	85.970074	-17.921919	5.440836
2.866667	-2.223565	2.073637	86.809898	0.223132	0.657883	0.659911	-1.374309	-2.598708	-9.467049	11.476317	0.200300	19.019162	10.764941	0.000000	-1.513353	2.219594	-11.663513	8.773428	0.153125	19.297724	1.450944	0.000000	0.145906	-0.118230	0.107848	0.270961	-0.157246	0.114588	0.239708	-0.287464	0.114588	0.166756	-0.287464	0.094367	0.135488	-0.241094	0.087626	0.083370	-0.183138	0.080886	1.042189	-1.337440	0.599818	0.000000	0.000000	23.266690	-4.752141	-12.771789	-6.639110	-14.118146	-4.694300	37.597003	81.676499	-20.684669	-1.052827	-4.336378	-16.149983	19.507969	32.693230	86.191359	-18.693893	5.782925
